<svg id="bb554b9e-b999-4ef3-b2f2-4c0395b94ae2" data-name="Layer 1" xmlns="http://www.w3.org/2000/svg" width="926.62165" height="600.08495" viewBox="0 0 926.62165 600.08495" style=""><path fill="#ffb8b8" d="M125.97292,254.87249A24.56103,24.56103 0,1,1 175.09498,254.87249A24.56103,24.56103 0,1,1 125.97292,254.87249" class="RkDUVwPU_0"></path><path fill="#ffb8b8" d="M67.543,549.197L73.762,559.763L117.474,540.803L108.295,525.21L67.543,549.197Z" class="RkDUVwPU_1"></path><path d="M206.09566,694.4297,218.343,715.23658l.0005.00084A15.38605,15.38605,0,0,1,212.888,736.302l-.43091.25362L192.4047,702.48857Z" transform="translate(-136.68918 -149.95753)" fill="#2f2e41" class="RkDUVwPU_2"></path><path fill="#ffb8b8" d="M139.6,587.26L151.86,587.259L157.692,539.971L139.598,539.972L139.6,587.26Z" class="RkDUVwPU_3"></path><path d="M273.16223,733.21466l24.14379-.001h.001a15.38605,15.38605,0,0,1,15.38648,15.38623v.5l-39.53052.00146Z" transform="translate(-136.68918 -149.95753)" fill="#2f2e41" class="RkDUVwPU_4"></path><path d="M227.00063,708.56723a4.49318,4.49318,0,0,1-3.624-1.833l-11.82373-16.05859a4.49961,4.49961,0,0,1,1.12451-6.41016l52.614-35.1416-31.74659-83.47461L301.434,571.2518l2.28662,71.7334A36.04579,36.04579,0,0,1,285.67544,675.409l-56.42652,32.55371A4.486,4.486,0,0,1,227.00063,708.56723Z" transform="translate(-136.68918 -149.95753)" fill="#2f2e41" class="RkDUVwPU_5"></path><path d="M276.65933,727.617a4.49986,4.49986,0,0,1-4.48877-4.33984l-2.488-69.88184,30.80835-1.623-2.45313,70.38379a4.48729,4.48729,0,0,1-4.1997,4.333l-16.87281,1.11817C276.86294,727.6141,276.76089,727.617,276.65933,727.617Z" transform="translate(-136.68918 -149.95753)" fill="#2f2e41" class="RkDUVwPU_6"></path><path d="M309.29092,585.12875c-7.83838,0-35.21656-8.8164-44.72119-11.959-1.42188,1.13769-9.23316,6.97851-18.35108,5.91113-5.626-.66016-10.57886-3.84473-14.72095-9.46582-9.147-12.41406,2.15064-65.65137,13.239-108.126a34.26782,34.26782,0,0,1,40.52856-24.87988h0a34.57137,34.57137,0,0,1,26.08765,25.37793c2.08765,8.49805.29175,18.49414-1.01953,25.79395-.61646,3.43164-1.10352,6.14257-.937,7.47461.64355,5.14843,4.21875,85.8916,1.91992,89.33984C311.07143,584.96274,310.36343,585.12875,309.29092,585.12875Z" transform="translate(-136.68918 -149.95753)" fill="#6c63ff" class="RkDUVwPU_7"></path><path d="M280.616,585.27177a10.74269,10.74269,0,0,0,.9416-16.44569l.48534-97.84356-23.04478,3.8374,6.76925,94.97037A10.80091,10.80091,0,0,0,280.616,585.27177Z" transform="translate(-136.68918 -149.95753)" fill="#ffb8b8" class="RkDUVwPU_8"></path><path d="M285.946,533.81821H261.12417a4.51352,4.51352,0,0,1-4.5-4.459l-.60938-67.292a17.603,17.603,0,1,1,35.20411.043L290.4457,529.37A4.51547,4.51547,0,0,1,285.946,533.81821Z" transform="translate(-136.68918 -149.95753)" fill="#6c63ff" class="RkDUVwPU_9"></path><path d="M280.96926,429.28873c-11.24529.02059-21.85416-8.868-23.80286-19.94323a28.67148,28.67148,0,0,1,.91927-13.01372A34.95394,34.95394,0,0,1,306.021,374.379c3.00831,1.36131,5.97145,3.31645,7.3489,6.31741s.51535,7.19528-2.49791,8.54561c-1.96916.88242-4.44023.4491-6.18719,1.71573-2.50928,1.81937-1.86334,5.69129-.74286,8.58112s2.38776,6.38691.50947,8.85239c-1.75023,2.29739-5.24872,2.22609-8.00436,1.36137s-5.47557-2.31277-8.34864-2.01822c-4.1904.42961-7.20172,4.59773-7.7591,8.77306s.75474,8.34892,2.05018,12.35714Z" transform="translate(-136.68918 -149.95753)" fill="#2f2e41" class="RkDUVwPU_10"></path><path d="M395.68918,750.04247h-258a1,1,0,1,1,0-2h258a1,1,0,0,1,0,2Z" transform="translate(-136.68918 -149.95753)" fill="#ccc" class="RkDUVwPU_11"></path><path d="M1046.81082,584.50538H405.97232a16.51868,16.51868,0,0,1-16.5-16.5V172.85157a12.10185,12.10185,0,0,1,12.08789-12.08838h649.4535a12.31111,12.31111,0,0,1,12.29711,12.29736V568.00538A16.51867,16.51867,0,0,1,1046.81082,584.50538Z" transform="translate(-136.68918 -149.95753)" fill="#f2f2f2" class="RkDUVwPU_12"></path><path d="M1026.091,563.67306H428.84627c-8.755,0-15.87757-6.66993-15.87757-14.86817v-344.105c0-6.08008,5.278-11.02685,11.76563-11.02685H1030.008c6.59521,0,11.96069,5.02832,11.96069,11.20849V548.80489C1041.9687,557.00313,1034.8459,563.67306,1026.091,563.67306Z" transform="translate(-136.68918 -149.95753)" fill="#fff" class="RkDUVwPU_13"></path><path d="M1063.08109,174.90772H389.24076v-8.40039a16.57376,16.57376,0,0,1,16.56-16.5498H1046.521a16.57368,16.57368,0,0,1,16.56006,16.5498Z" transform="translate(-136.68918 -149.95753)" fill="#3f3d56" class="RkDUVwPU_14"></path><path fill="#fff" d="M278.36352,12.5A4.28342,4.28342 0,1,1 286.93035999999995,12.5A4.28342,4.28342 0,1,1 278.36352,12.5" class="RkDUVwPU_15"></path><path fill="#fff" d="M294.62233000000003,12.5A4.28342,4.28342 0,1,1 303.18917,12.5A4.28342,4.28342 0,1,1 294.62233000000003,12.5" class="RkDUVwPU_16"></path><path fill="#fff" d="M310.88113000000004,12.5A4.28342,4.28342 0,1,1 319.44797,12.5A4.28342,4.28342 0,1,1 310.88113000000004,12.5" class="RkDUVwPU_17"></path><path d="M713.29967,268.912H596.49153a6.56614,6.56614,0,0,1,0-13.13228H713.29967a6.56614,6.56614,0,1,1,0,13.13228Z" transform="translate(-136.68918 -149.95753)" fill="#ccc" class="RkDUVwPU_18"></path><path d="M858.44587,268.912H741.63774a6.56614,6.56614,0,0,1,0-13.13228H858.44587a6.56614,6.56614,0,1,1,0,13.13228Z" transform="translate(-136.68918 -149.95753)" fill="#ccc" class="RkDUVwPU_19"></path><path d="M858.44587,293.79419H655.24119a6.56613,6.56613,0,1,1,0-13.13227H858.44587a6.56613,6.56613,0,1,1,0,13.13227Z" transform="translate(-136.68918 -149.95753)" fill="#ccc" class="RkDUVwPU_20"></path><path d="M713.29967,243.68419H596.49153a6.56614,6.56614,0,0,1,0-13.13227H713.29967a6.56614,6.56614,0,1,1,0,13.13227Z" transform="translate(-136.68918 -149.95753)" fill="#ccc" class="RkDUVwPU_21"></path><path d="M777.5787,244.02978H744.40243a6.56614,6.56614,0,0,1,0-13.13228H777.5787a6.56614,6.56614,0,1,1,0,13.13228Z" transform="translate(-136.68918 -149.95753)" fill="#ccc" class="RkDUVwPU_22"></path><path d="M629.66781,293.79419H596.49153a6.56614,6.56614,0,0,1,0-13.13227h33.17628a6.56614,6.56614,0,1,1,0,13.13227Z" transform="translate(-136.68918 -149.95753)" fill="#ccc" class="RkDUVwPU_23"></path><path d="M713.29967,501.912H596.49153a6.56614,6.56614,0,0,1,0-13.13228H713.29967a6.56614,6.56614,0,1,1,0,13.13228Z" transform="translate(-136.68918 -149.95753)" fill="#ccc" class="RkDUVwPU_24"></path><path d="M858.44587,501.912H741.63774a6.56614,6.56614,0,0,1,0-13.13228H858.44587a6.56614,6.56614,0,1,1,0,13.13228Z" transform="translate(-136.68918 -149.95753)" fill="#ccc" class="RkDUVwPU_25"></path><path d="M858.44587,526.79419H655.24119a6.56613,6.56613,0,1,1,0-13.13227H858.44587a6.56614,6.56614,0,1,1,0,13.13227Z" transform="translate(-136.68918 -149.95753)" fill="#ccc" class="RkDUVwPU_26"></path><path d="M713.29967,476.68419H596.49153a6.56613,6.56613,0,0,1,0-13.13227H713.29967a6.56613,6.56613,0,1,1,0,13.13227Z" transform="translate(-136.68918 -149.95753)" fill="#ccc" class="RkDUVwPU_27"></path><path d="M777.5787,477.02978H744.40243a6.56614,6.56614,0,0,1,0-13.13228H777.5787a6.56614,6.56614,0,0,1,0,13.13228Z" transform="translate(-136.68918 -149.95753)" fill="#ccc" class="RkDUVwPU_28"></path><path d="M629.66781,526.79419H596.49153a6.56613,6.56613,0,0,1,0-13.13227h33.17628a6.56614,6.56614,0,1,1,0,13.13227Z" transform="translate(-136.68918 -149.95753)" fill="#ccc" class="RkDUVwPU_29"></path><path d="M682.793,431.41924a9.39692,9.39692,0,0,1-6.62352-2.7101l-43.90868-43.35929a9.1516,9.1516,0,0,1,0-13.02336l43.73124-43.18435a9.70171,9.70171,0,0,1,13.64354.043h0a9.689,9.689,0,0,1,.00019,13.68669l-32.49607,32.49664a5.41338,5.41338,0,0,0,0,7.64652l32.31978,32.32016a9.418,9.418,0,0,1-6.66648,16.08412Z" transform="translate(-136.68918 -149.95753)" fill="#6c63ff" class="RkDUVwPU_30"></path><path d="M752.75859,431.41924a9.418,9.418,0,0,1-6.66648-16.08412L778.41189,383.015a5.41338,5.41338,0,0,0,0-7.64652L745.91582,342.8718a9.67776,9.67776,0,0,1,.00019-13.68669h0a9.70169,9.70169,0,0,1,13.64353-.043l43.73124,43.18435a9.15157,9.15157,0,0,1,0,13.02336l-43.90867,43.35929A9.39891,9.39891,0,0,1,752.75859,431.41924Z" transform="translate(-136.68918 -149.95753)" fill="#6c63ff" class="RkDUVwPU_31"></path><style data-made-with="vivus-instant">.RkDUVwPU_0{stroke-dasharray:155 157;stroke-dashoffset:156;animation:RkDUVwPU_draw_0 7200ms linear 0ms infinite,RkDUVwPU_fade 7200ms linear 0ms infinite;}.RkDUVwPU_1{stroke-dasharray:126 128;stroke-dashoffset:127;animation:RkDUVwPU_draw_1 7200ms linear 0ms infinite,RkDUVwPU_fade 7200ms linear 0ms infinite;}.RkDUVwPU_2{stroke-dasharray:105 107;stroke-dashoffset:106;animation:RkDUVwPU_draw_2 7200ms linear 0ms infinite,RkDUVwPU_fade 7200ms linear 0ms infinite;}.RkDUVwPU_3{stroke-dasharray:126 128;stroke-dashoffset:127;animation:RkDUVwPU_draw_3 7200ms linear 0ms infinite,RkDUVwPU_fade 7200ms linear 0ms infinite;}.RkDUVwPU_4{stroke-dasharray:105 107;stroke-dashoffset:106;animation:RkDUVwPU_draw_4 7200ms linear 0ms infinite,RkDUVwPU_fade 7200ms linear 0ms infinite;}.RkDUVwPU_5{stroke-dasharray:431 433;stroke-dashoffset:432;animation:RkDUVwPU_draw_5 7200ms linear 0ms infinite,RkDUVwPU_fade 7200ms linear 0ms infinite;}.RkDUVwPU_6{stroke-dasharray:202 204;stroke-dashoffset:203;animation:RkDUVwPU_draw_6 7200ms linear 0ms infinite,RkDUVwPU_fade 7200ms linear 0ms infinite;}.RkDUVwPU_7{stroke-dasharray:411 413;stroke-dashoffset:412;animation:RkDUVwPU_draw_7 7200ms linear 0ms infinite,RkDUVwPU_fade 7200ms linear 0ms infinite;}.RkDUVwPU_8{stroke-dasharray:267 269;stroke-dashoffset:268;animation:RkDUVwPU_draw_8 7200ms linear 0ms infinite,RkDUVwPU_fade 7200ms linear 0ms infinite;}.RkDUVwPU_9{stroke-dasharray:230 232;stroke-dashoffset:231;animation:RkDUVwPU_draw_9 7200ms linear 0ms infinite,RkDUVwPU_fade 7200ms linear 0ms infinite;}.RkDUVwPU_10{stroke-dasharray:196 198;stroke-dashoffset:197;animation:RkDUVwPU_draw_10 7200ms linear 0ms infinite,RkDUVwPU_fade 7200ms linear 0ms infinite;}.RkDUVwPU_11{stroke-dasharray:523 525;stroke-dashoffset:524;animation:RkDUVwPU_draw_11 7200ms linear 0ms infinite,RkDUVwPU_fade 7200ms linear 0ms infinite;}.RkDUVwPU_12{stroke-dasharray:2171 2173;stroke-dashoffset:2172;animation:RkDUVwPU_draw_12 7200ms linear 0ms infinite,RkDUVwPU_fade 7200ms linear 0ms infinite;}.RkDUVwPU_13{stroke-dasharray:1975 1977;stroke-dashoffset:1976;animation:RkDUVwPU_draw_13 7200ms linear 0ms infinite,RkDUVwPU_fade 7200ms linear 0ms infinite;}.RkDUVwPU_14{stroke-dasharray:1384 1386;stroke-dashoffset:1385;animation:RkDUVwPU_draw_14 7200ms linear 0ms infinite,RkDUVwPU_fade 7200ms linear 0ms infinite;}.RkDUVwPU_15{stroke-dasharray:27 29;stroke-dashoffset:28;animation:RkDUVwPU_draw_15 7200ms linear 0ms infinite,RkDUVwPU_fade 7200ms linear 0ms infinite;}.RkDUVwPU_16{stroke-dasharray:27 29;stroke-dashoffset:28;animation:RkDUVwPU_draw_16 7200ms linear 0ms infinite,RkDUVwPU_fade 7200ms linear 0ms infinite;}.RkDUVwPU_17{stroke-dasharray:27 29;stroke-dashoffset:28;animation:RkDUVwPU_draw_17 7200ms linear 0ms infinite,RkDUVwPU_fade 7200ms linear 0ms infinite;}.RkDUVwPU_18{stroke-dasharray:275 277;stroke-dashoffset:276;animation:RkDUVwPU_draw_18 7200ms linear 0ms infinite,RkDUVwPU_fade 7200ms linear 0ms infinite;}.RkDUVwPU_19{stroke-dasharray:275 277;stroke-dashoffset:276;animation:RkDUVwPU_draw_19 7200ms linear 0ms infinite,RkDUVwPU_fade 7200ms linear 0ms infinite;}.RkDUVwPU_20{stroke-dasharray:448 450;stroke-dashoffset:449;animation:RkDUVwPU_draw_20 7200ms linear 0ms infinite,RkDUVwPU_fade 7200ms linear 0ms infinite;}.RkDUVwPU_21{stroke-dasharray:275 277;stroke-dashoffset:276;animation:RkDUVwPU_draw_21 7200ms linear 0ms infinite,RkDUVwPU_fade 7200ms linear 0ms infinite;}.RkDUVwPU_22{stroke-dasharray:108 110;stroke-dashoffset:109;animation:RkDUVwPU_draw_22 7200ms linear 0ms infinite,RkDUVwPU_fade 7200ms linear 0ms infinite;}.RkDUVwPU_23{stroke-dasharray:108 110;stroke-dashoffset:109;animation:RkDUVwPU_draw_23 7200ms linear 0ms infinite,RkDUVwPU_fade 7200ms linear 0ms infinite;}.RkDUVwPU_24{stroke-dasharray:275 277;stroke-dashoffset:276;animation:RkDUVwPU_draw_24 7200ms linear 0ms infinite,RkDUVwPU_fade 7200ms linear 0ms infinite;}.RkDUVwPU_25{stroke-dasharray:275 277;stroke-dashoffset:276;animation:RkDUVwPU_draw_25 7200ms linear 0ms infinite,RkDUVwPU_fade 7200ms linear 0ms infinite;}.RkDUVwPU_26{stroke-dasharray:448 450;stroke-dashoffset:449;animation:RkDUVwPU_draw_26 7200ms linear 0ms infinite,RkDUVwPU_fade 7200ms linear 0ms infinite;}.RkDUVwPU_27{stroke-dasharray:275 277;stroke-dashoffset:276;animation:RkDUVwPU_draw_27 7200ms linear 0ms infinite,RkDUVwPU_fade 7200ms linear 0ms infinite;}.RkDUVwPU_28{stroke-dasharray:108 110;stroke-dashoffset:109;animation:RkDUVwPU_draw_28 7200ms linear 0ms infinite,RkDUVwPU_fade 7200ms linear 0ms infinite;}.RkDUVwPU_29{stroke-dasharray:108 110;stroke-dashoffset:109;animation:RkDUVwPU_draw_29 7200ms linear 0ms infinite,RkDUVwPU_fade 7200ms linear 0ms infinite;}.RkDUVwPU_30{stroke-dasharray:298 300;stroke-dashoffset:299;animation:RkDUVwPU_draw_30 7200ms linear 0ms infinite,RkDUVwPU_fade 7200ms linear 0ms infinite;}.RkDUVwPU_31{stroke-dasharray:298 300;stroke-dashoffset:299;animation:RkDUVwPU_draw_31 7200ms linear 0ms infinite,RkDUVwPU_fade 7200ms linear 0ms infinite;}@keyframes RkDUVwPU_draw{100%{stroke-dashoffset:0;}}@keyframes RkDUVwPU_fade{0%{stroke-opacity:1;}94.44444444444444%{stroke-opacity:1;}100%{stroke-opacity:0;}}@keyframes RkDUVwPU_draw_0{11.11111111111111%{stroke-dashoffset: 156}52.5%{ stroke-dashoffset: 0;}100%{ stroke-dashoffset: 0;}}@keyframes RkDUVwPU_draw_1{11.120071684587813%{stroke-dashoffset: 127}52.508960573476706%{ stroke-dashoffset: 0;}100%{ stroke-dashoffset: 0;}}@keyframes RkDUVwPU_draw_2{11.129032258064516%{stroke-dashoffset: 106}52.517921146953405%{ stroke-dashoffset: 0;}100%{ stroke-dashoffset: 0;}}@keyframes RkDUVwPU_draw_3{11.137992831541219%{stroke-dashoffset: 127}52.526881720430104%{ stroke-dashoffset: 0;}100%{ stroke-dashoffset: 0;}}@keyframes RkDUVwPU_draw_4{11.146953405017921%{stroke-dashoffset: 106}52.53584229390681%{ stroke-dashoffset: 0;}100%{ stroke-dashoffset: 0;}}@keyframes RkDUVwPU_draw_5{11.155913978494624%{stroke-dashoffset: 432}52.54480286738351%{ stroke-dashoffset: 0;}100%{ stroke-dashoffset: 0;}}@keyframes RkDUVwPU_draw_6{11.164874551971327%{stroke-dashoffset: 203}52.553763440860216%{ stroke-dashoffset: 0;}100%{ stroke-dashoffset: 0;}}@keyframes RkDUVwPU_draw_7{11.17383512544803%{stroke-dashoffset: 412}52.562724014336915%{ stroke-dashoffset: 0;}100%{ stroke-dashoffset: 0;}}@keyframes RkDUVwPU_draw_8{11.18279569892473%{stroke-dashoffset: 268}52.571684587813614%{ stroke-dashoffset: 0;}100%{ stroke-dashoffset: 0;}}@keyframes RkDUVwPU_draw_9{11.191756272401433%{stroke-dashoffset: 231}52.58064516129033%{ stroke-dashoffset: 0;}100%{ stroke-dashoffset: 0;}}@keyframes RkDUVwPU_draw_10{11.200716845878137%{stroke-dashoffset: 197}52.589605734767034%{ stroke-dashoffset: 0;}100%{ stroke-dashoffset: 0;}}@keyframes RkDUVwPU_draw_11{11.20967741935484%{stroke-dashoffset: 524}52.59856630824372%{ stroke-dashoffset: 0;}100%{ stroke-dashoffset: 0;}}@keyframes RkDUVwPU_draw_12{11.21863799283154%{stroke-dashoffset: 2172}52.60752688172043%{ stroke-dashoffset: 0;}100%{ stroke-dashoffset: 0;}}@keyframes RkDUVwPU_draw_13{11.227598566308243%{stroke-dashoffset: 1976}52.61648745519714%{ stroke-dashoffset: 0;}100%{ stroke-dashoffset: 0;}}@keyframes RkDUVwPU_draw_14{11.236559139784946%{stroke-dashoffset: 1385}52.62544802867384%{ stroke-dashoffset: 0;}100%{ stroke-dashoffset: 0;}}@keyframes RkDUVwPU_draw_15{11.245519713261649%{stroke-dashoffset: 28}52.63440860215054%{ stroke-dashoffset: 0;}100%{ stroke-dashoffset: 0;}}@keyframes RkDUVwPU_draw_16{11.254480286738353%{stroke-dashoffset: 28}52.64336917562724%{ stroke-dashoffset: 0;}100%{ stroke-dashoffset: 0;}}@keyframes RkDUVwPU_draw_17{11.263440860215054%{stroke-dashoffset: 28}52.65232974910394%{ stroke-dashoffset: 0;}100%{ stroke-dashoffset: 0;}}@keyframes RkDUVwPU_draw_18{11.272401433691757%{stroke-dashoffset: 276}52.66129032258065%{ stroke-dashoffset: 0;}100%{ stroke-dashoffset: 0;}}@keyframes RkDUVwPU_draw_19{11.28136200716846%{stroke-dashoffset: 276}52.67025089605735%{ stroke-dashoffset: 0;}100%{ stroke-dashoffset: 0;}}@keyframes RkDUVwPU_draw_20{11.29032258064516%{stroke-dashoffset: 449}52.679211469534046%{ stroke-dashoffset: 0;}100%{ stroke-dashoffset: 0;}}@keyframes RkDUVwPU_draw_21{11.299283154121863%{stroke-dashoffset: 276}52.68817204301075%{ stroke-dashoffset: 0;}100%{ stroke-dashoffset: 0;}}@keyframes RkDUVwPU_draw_22{11.308243727598567%{stroke-dashoffset: 109}52.69713261648745%{ stroke-dashoffset: 0;}100%{ stroke-dashoffset: 0;}}@keyframes RkDUVwPU_draw_23{11.31720430107527%{stroke-dashoffset: 109}52.706093189964164%{ stroke-dashoffset: 0;}100%{ stroke-dashoffset: 0;}}@keyframes RkDUVwPU_draw_24{11.326164874551973%{stroke-dashoffset: 276}52.71505376344086%{ stroke-dashoffset: 0;}100%{ stroke-dashoffset: 0;}}@keyframes RkDUVwPU_draw_25{11.335125448028673%{stroke-dashoffset: 276}52.724014336917556%{ stroke-dashoffset: 0;}100%{ stroke-dashoffset: 0;}}@keyframes RkDUVwPU_draw_26{11.344086021505376%{stroke-dashoffset: 449}52.73297491039427%{ stroke-dashoffset: 0;}100%{ stroke-dashoffset: 0;}}@keyframes RkDUVwPU_draw_27{11.353046594982079%{stroke-dashoffset: 276}52.741935483870975%{ stroke-dashoffset: 0;}100%{ stroke-dashoffset: 0;}}@keyframes RkDUVwPU_draw_28{11.362007168458781%{stroke-dashoffset: 109}52.750896057347674%{ stroke-dashoffset: 0;}100%{ stroke-dashoffset: 0;}}@keyframes RkDUVwPU_draw_29{11.370967741935484%{stroke-dashoffset: 109}52.75985663082437%{ stroke-dashoffset: 0;}100%{ stroke-dashoffset: 0;}}@keyframes RkDUVwPU_draw_30{11.379928315412187%{stroke-dashoffset: 299}52.76881720430108%{ stroke-dashoffset: 0;}100%{ stroke-dashoffset: 0;}}@keyframes RkDUVwPU_draw_31{11.38888888888889%{stroke-dashoffset: 299}52.77777777777778%{ stroke-dashoffset: 0;}100%{ stroke-dashoffset: 0;}}</style></svg>